<svg xmlns="http://www.w3.org/2000/svg" viewBox="0 0 500 350" fill="none">

  <!-- PLATFORM / KREPIDOMA -->
  <g stroke="#e8a020" stroke-linecap="round" stroke-linejoin="round">
    <rect x="42" y="258" width="416" height="10" stroke-width="2.5" fill="none"/>
    <rect x="34" y="268" width="432" height="10" stroke-width="2" fill="none"/>
    <rect x="26" y="278" width="448" height="12" stroke-width="2" fill="none"/>
  </g>

  <!-- COLUMNS (6) — centers: 60, 136, 212, 288, 364, 440 -->
  <g stroke="#e8a020" stroke-linecap="round" stroke-linejoin="round">

    <!-- COL 1: cx=60 -->
    <rect x="47" y="174" width="26" height="84" stroke-width="2" fill="none"/>
    <line x1="52" y1="177" x2="52" y2="256" stroke-width="0.75"/><line x1="56.5" y1="177" x2="56.5" y2="256" stroke-width="0.75"/><line x1="60" y1="177" x2="60" y2="256" stroke-width="0.75"/><line x1="63.5" y1="177" x2="63.5" y2="256" stroke-width="0.75"/><line x1="68" y1="177" x2="68" y2="256" stroke-width="0.75"/>
    <line x1="47" y1="178" x2="73" y2="178" stroke-width="0.8"/><line x1="47" y1="181" x2="73" y2="181" stroke-width="0.8"/>
    <line x1="47" y1="174" x2="42" y2="164" stroke-width="1.5"/><line x1="73" y1="174" x2="78" y2="164" stroke-width="1.5"/>
    <rect x="42" y="158" width="36" height="6" stroke-width="2" fill="none"/>
    <ellipse cx="60" cy="258" rx="16" ry="4.5" stroke-width="1.5" fill="none"/>
    <ellipse cx="60" cy="258" rx="11" ry="3" stroke-width="0.7" fill="none"/>

    <!-- COL 2: cx=136 -->
    <rect x="123" y="174" width="26" height="84" stroke-width="2" fill="none"/>
    <line x1="128" y1="177" x2="128" y2="256" stroke-width="0.75"/><line x1="132.5" y1="177" x2="132.5" y2="256" stroke-width="0.75"/><line x1="136" y1="177" x2="136" y2="256" stroke-width="0.75"/><line x1="139.5" y1="177" x2="139.5" y2="256" stroke-width="0.75"/><line x1="144" y1="177" x2="144" y2="256" stroke-width="0.75"/>
    <line x1="123" y1="178" x2="149" y2="178" stroke-width="0.8"/><line x1="123" y1="181" x2="149" y2="181" stroke-width="0.8"/>
    <line x1="123" y1="174" x2="118" y2="164" stroke-width="1.5"/><line x1="149" y1="174" x2="154" y2="164" stroke-width="1.5"/>
    <rect x="118" y="158" width="36" height="6" stroke-width="2" fill="none"/>
    <ellipse cx="136" cy="258" rx="16" ry="4.5" stroke-width="1.5" fill="none"/>
    <ellipse cx="136" cy="258" rx="11" ry="3" stroke-width="0.7" fill="none"/>

    <!-- COL 3: cx=212 -->
    <rect x="199" y="174" width="26" height="84" stroke-width="2" fill="none"/>
    <line x1="204" y1="177" x2="204" y2="256" stroke-width="0.75"/><line x1="208.5" y1="177" x2="208.5" y2="256" stroke-width="0.75"/><line x1="212" y1="177" x2="212" y2="256" stroke-width="0.75"/><line x1="215.5" y1="177" x2="215.5" y2="256" stroke-width="0.75"/><line x1="220" y1="177" x2="220" y2="256" stroke-width="0.75"/>
    <line x1="199" y1="178" x2="225" y2="178" stroke-width="0.8"/><line x1="199" y1="181" x2="225" y2="181" stroke-width="0.8"/>
    <line x1="199" y1="174" x2="194" y2="164" stroke-width="1.5"/><line x1="225" y1="174" x2="230" y2="164" stroke-width="1.5"/>
    <rect x="194" y="158" width="36" height="6" stroke-width="2" fill="none"/>
    <ellipse cx="212" cy="258" rx="16" ry="4.5" stroke-width="1.5" fill="none"/>
    <ellipse cx="212" cy="258" rx="11" ry="3" stroke-width="0.7" fill="none"/>

    <!-- COL 4: cx=288 -->
    <rect x="275" y="174" width="26" height="84" stroke-width="2" fill="none"/>
    <line x1="280" y1="177" x2="280" y2="256" stroke-width="0.75"/><line x1="284.5" y1="177" x2="284.5" y2="256" stroke-width="0.75"/><line x1="288" y1="177" x2="288" y2="256" stroke-width="0.75"/><line x1="291.5" y1="177" x2="291.5" y2="256" stroke-width="0.75"/><line x1="296" y1="177" x2="296" y2="256" stroke-width="0.75"/>
    <line x1="275" y1="178" x2="301" y2="178" stroke-width="0.8"/><line x1="275" y1="181" x2="301" y2="181" stroke-width="0.8"/>
    <line x1="275" y1="174" x2="270" y2="164" stroke-width="1.5"/><line x1="301" y1="174" x2="306" y2="164" stroke-width="1.5"/>
    <rect x="270" y="158" width="36" height="6" stroke-width="2" fill="none"/>
    <ellipse cx="288" cy="258" rx="16" ry="4.5" stroke-width="1.5" fill="none"/>
    <ellipse cx="288" cy="258" rx="11" ry="3" stroke-width="0.7" fill="none"/>

    <!-- COL 5: cx=364 -->
    <rect x="351" y="174" width="26" height="84" stroke-width="2" fill="none"/>
    <line x1="356" y1="177" x2="356" y2="256" stroke-width="0.75"/><line x1="360.5" y1="177" x2="360.5" y2="256" stroke-width="0.75"/><line x1="364" y1="177" x2="364" y2="256" stroke-width="0.75"/><line x1="367.5" y1="177" x2="367.5" y2="256" stroke-width="0.75"/><line x1="372" y1="177" x2="372" y2="256" stroke-width="0.75"/>
    <line x1="351" y1="178" x2="377" y2="178" stroke-width="0.8"/><line x1="351" y1="181" x2="377" y2="181" stroke-width="0.8"/>
    <line x1="351" y1="174" x2="346" y2="164" stroke-width="1.5"/><line x1="377" y1="174" x2="382" y2="164" stroke-width="1.5"/>
    <rect x="346" y="158" width="36" height="6" stroke-width="2" fill="none"/>
    <ellipse cx="364" cy="258" rx="16" ry="4.5" stroke-width="1.5" fill="none"/>
    <ellipse cx="364" cy="258" rx="11" ry="3" stroke-width="0.7" fill="none"/>

    <!-- COL 6: cx=440 -->
    <rect x="427" y="174" width="26" height="84" stroke-width="2" fill="none"/>
    <line x1="432" y1="177" x2="432" y2="256" stroke-width="0.75"/><line x1="436.5" y1="177" x2="436.5" y2="256" stroke-width="0.75"/><line x1="440" y1="177" x2="440" y2="256" stroke-width="0.75"/><line x1="443.5" y1="177" x2="443.5" y2="256" stroke-width="0.75"/><line x1="448" y1="177" x2="448" y2="256" stroke-width="0.75"/>
    <line x1="427" y1="178" x2="453" y2="178" stroke-width="0.8"/><line x1="427" y1="181" x2="453" y2="181" stroke-width="0.8"/>
    <line x1="427" y1="174" x2="422" y2="164" stroke-width="1.5"/><line x1="453" y1="174" x2="458" y2="164" stroke-width="1.5"/>
    <rect x="422" y="158" width="36" height="6" stroke-width="2" fill="none"/>
    <ellipse cx="440" cy="258" rx="16" ry="4.5" stroke-width="1.5" fill="none"/>
    <ellipse cx="440" cy="258" rx="11" ry="3" stroke-width="0.7" fill="none"/>
  </g>

  <!-- ENTABLATURE -->
  <g stroke="#e8a020" stroke-linecap="round" stroke-linejoin="round">
    <!-- Architrave with fasciae lines -->
    <rect x="40" y="148" width="420" height="10" stroke-width="2.5" fill="none"/>
    <line x1="40" y1="152" x2="460" y2="152" stroke-width="0.7"/>
    <line x1="40" y1="156" x2="460" y2="156" stroke-width="0.7"/>

    <!-- Frieze -->
    <rect x="40" y="118" width="420" height="30" stroke-width="2" fill="none"/>

    <!-- Triglyph + regula: col1 cx=60 -->
    <rect x="49" y="118" width="22" height="30" stroke-width="1.2" fill="rgba(232,160,32,0.08)"/>
    <line x1="55" y1="120" x2="55" y2="146" stroke-width="1.1"/><line x1="60" y1="120" x2="60" y2="146" stroke-width="1.1"/><line x1="65" y1="120" x2="65" y2="146" stroke-width="1.1"/>
    <line x1="49" y1="148" x2="71" y2="148" stroke-width="2"/>

    <!-- Triglyph + regula: col2 cx=136 -->
    <rect x="125" y="118" width="22" height="30" stroke-width="1.2" fill="rgba(232,160,32,0.08)"/>
    <line x1="131" y1="120" x2="131" y2="146" stroke-width="1.1"/><line x1="136" y1="120" x2="136" y2="146" stroke-width="1.1"/><line x1="141" y1="120" x2="141" y2="146" stroke-width="1.1"/>
    <line x1="125" y1="148" x2="147" y2="148" stroke-width="2"/>

    <!-- Triglyph + regula: col3 cx=212 -->
    <rect x="201" y="118" width="22" height="30" stroke-width="1.2" fill="rgba(232,160,32,0.08)"/>
    <line x1="207" y1="120" x2="207" y2="146" stroke-width="1.1"/><line x1="212" y1="120" x2="212" y2="146" stroke-width="1.1"/><line x1="217" y1="120" x2="217" y2="146" stroke-width="1.1"/>
    <line x1="201" y1="148" x2="223" y2="148" stroke-width="2"/>

    <!-- Triglyph + regula: col4 cx=288 -->
    <rect x="277" y="118" width="22" height="30" stroke-width="1.2" fill="rgba(232,160,32,0.08)"/>
    <line x1="283" y1="120" x2="283" y2="146" stroke-width="1.1"/><line x1="288" y1="120" x2="288" y2="146" stroke-width="1.1"/><line x1="293" y1="120" x2="293" y2="146" stroke-width="1.1"/>
    <line x1="277" y1="148" x2="299" y2="148" stroke-width="2"/>

    <!-- Triglyph + regula: col5 cx=364 -->
    <rect x="353" y="118" width="22" height="30" stroke-width="1.2" fill="rgba(232,160,32,0.08)"/>
    <line x1="359" y1="120" x2="359" y2="146" stroke-width="1.1"/><line x1="364" y1="120" x2="364" y2="146" stroke-width="1.1"/><line x1="369" y1="120" x2="369" y2="146" stroke-width="1.1"/>
    <line x1="353" y1="148" x2="375" y2="148" stroke-width="2"/>

    <!-- Triglyph + regula: col6 cx=440 -->
    <rect x="429" y="118" width="22" height="30" stroke-width="1.2" fill="rgba(232,160,32,0.08)"/>
    <line x1="435" y1="120" x2="435" y2="146" stroke-width="1.1"/><line x1="440" y1="120" x2="440" y2="146" stroke-width="1.1"/><line x1="445" y1="120" x2="445" y2="146" stroke-width="1.1"/>
    <line x1="429" y1="148" x2="451" y2="148" stroke-width="2"/>

    <!-- Cornice -->
    <rect x="38" y="106" width="424" height="12" stroke-width="2.5" fill="none"/>

    <!-- PEDIMENT -->
    <!-- Outer raking cornice -->
    <line x1="38" y1="106" x2="250" y2="22" stroke-width="3"/>
    <line x1="462" y1="106" x2="250" y2="22" stroke-width="3"/>
    <!-- Inner raking cornice (tympanum edge) -->
    <line x1="58" y1="106" x2="250" y2="36" stroke-width="1.6"/>
    <line x1="442" y1="106" x2="250" y2="36" stroke-width="1.6"/>
  </g>

  <!-- CIRCUIT — PEDIMENT TYMPANUM -->
  <g stroke="#e8a020" stroke-linecap="round" stroke-linejoin="round">
    <circle cx="250" cy="36" r="6" fill="#e8a020" stroke="none"/>
    <line x1="250" y1="42" x2="250" y2="96" stroke-width="1.8"/>

    <!-- L1/R1 branches at y=50 -->
    <line x1="250" y1="50" x2="210" y2="50" stroke-width="1.5"/><line x1="210" y1="50" x2="210" y2="64" stroke-width="1.5"/>
    <line x1="250" y1="50" x2="290" y2="50" stroke-width="1.5"/><line x1="290" y1="50" x2="290" y2="64" stroke-width="1.5"/>
    <circle cx="210" cy="64" r="4" fill="#e8a020" stroke="none"/>
    <circle cx="290" cy="64" r="4" fill="#e8a020" stroke="none"/>

    <!-- L2/R2 branches at y=62 -->
    <line x1="250" y1="62" x2="178" y2="62" stroke-width="1.4"/><line x1="178" y1="62" x2="178" y2="76" stroke-width="1.4"/>
    <line x1="250" y1="62" x2="322" y2="62" stroke-width="1.4"/><line x1="322" y1="62" x2="322" y2="76" stroke-width="1.4"/>
    <circle cx="178" cy="76" r="3.5" fill="#e8a020" stroke="none"/>
    <circle cx="322" cy="76" r="3.5" fill="#e8a020" stroke="none"/>

    <!-- L3/R3 branches at y=74 -->
    <line x1="250" y1="74" x2="150" y2="74" stroke-width="1.3"/><line x1="150" y1="74" x2="150" y2="86" stroke-width="1.3"/>
    <line x1="250" y1="74" x2="350" y2="74" stroke-width="1.3"/><line x1="350" y1="74" x2="350" y2="86" stroke-width="1.3"/>
    <circle cx="150" cy="86" r="3" fill="#e8a020" stroke="none"/>
    <circle cx="350" cy="86" r="3" fill="#e8a020" stroke="none"/>

    <!-- L4/R4 branches at y=84 -->
    <line x1="250" y1="84" x2="124" y2="84" stroke-width="1.2"/><line x1="124" y1="84" x2="124" y2="94" stroke-width="1.2"/>
    <line x1="250" y1="84" x2="376" y2="84" stroke-width="1.2"/><line x1="376" y1="84" x2="376" y2="94" stroke-width="1.2"/>
    <circle cx="124" cy="94" r="3" fill="#e8a020" stroke="none"/>
    <circle cx="376" cy="94" r="3" fill="#e8a020" stroke="none"/>

    <!-- Trunk junction nodes -->
    <circle cx="250" cy="50" r="2.5" fill="#e8a020" stroke="none"/>
    <circle cx="250" cy="62" r="2.5" fill="#e8a020" stroke="none"/>
    <circle cx="250" cy="74" r="2.5" fill="#e8a020" stroke="none"/>
    <circle cx="250" cy="84" r="2.5" fill="#e8a020" stroke="none"/>
  </g>

  <!-- CIRCUIT — COLUMN INTERCOLUMNIATION -->
  <g stroke="#e8a020" stroke-linecap="round" stroke-linejoin="round">
    <line x1="250" y1="164" x2="250" y2="258" stroke-width="1.6" stroke-dasharray="5,3.5"/>
    <line x1="236" y1="195" x2="264" y2="195" stroke-width="1.4"/>
    <circle cx="236" cy="195" r="3" fill="#e8a020" stroke="none"/>
    <circle cx="264" cy="195" r="3" fill="#e8a020" stroke="none"/>
    <line x1="250" y1="214" x2="226" y2="214" stroke-width="1.4"/><line x1="226" y1="214" x2="226" y2="230" stroke-width="1.4"/>
    <circle cx="226" cy="230" r="3" fill="#e8a020" stroke="none"/>
    <line x1="250" y1="234" x2="274" y2="234" stroke-width="1.4"/><line x1="274" y1="234" x2="274" y2="248" stroke-width="1.4"/>
    <circle cx="274" cy="248" r="3" fill="#e8a020" stroke="none"/>
    <!-- Architrave connector -->
    <line x1="212" y1="153" x2="288" y2="153" stroke-width="1.3"/>
    <circle cx="212" cy="153" r="2.5" fill="#e8a020" stroke="none"/>
    <circle cx="288" cy="153" r="2.5" fill="#e8a020" stroke="none"/>
  </g>

  <!-- WORDMARK -->
  <text
    x="250" y="326"
    font-family="'Arial Black', 'Arial Bold', Arial, Helvetica, sans-serif"
    font-size="30"
    font-weight="900"
    letter-spacing="5"
    text-anchor="middle"
    fill="#f0ece4"
  >AUGMENTOUS</text>

</svg>
